<svg width="56" height="56" viewBox="0 0 56 56" fill="none" xmlns="http://www.w3.org/2000/svg">
<circle cx="28" cy="28" r="27.5" stroke="#E0DEF7"/>
<circle cx="28" cy="28" r="24.5" fill="#E0DEF7"/>
<rect x="29.4438" y="21.875" width="1.75" height="8.75" fill="#7065F0"/>
<rect x="19.25" y="28" width="1.75" height="8.75" fill="#7065F0"/>
<rect x="34.125" y="21.875" width="1.75" height="8.75" fill="#7065F0"/>
<path d="M19.8333 23.3333C17.8966 23.3333 16.3333 24.8966 16.3333 26.8333V36.1666C16.3333 38.1033 17.8966 39.6666 19.8333 39.6666H21.5833C22.8666 39.6666 23.9166 38.6166 23.9166 37.3333V25.6666C23.9166 24.3833 22.8666 23.3333 21.5833 23.3333H19.8333ZM20.9999 33.8333C20.9999 34.3116 20.6033 34.7083 20.1249 34.7083C19.6466 34.7083 19.2499 34.3116 19.2499 33.8333V29.1666C19.2499 28.6883 19.6466 28.2916 20.1249 28.2916C20.6033 28.2916 20.9999 28.6883 20.9999 29.1666V33.8333Z" fill="white"/>
<path d="M36.1667 16.3333H29.1667C27.2301 16.3333 25.6667 17.8966 25.6667 19.8333V36.1666C25.6667 38.1033 27.2301 39.6666 29.1667 39.6666H29.7501C30.0767 39.6666 30.3334 39.4099 30.3334 39.0833V34.9999C30.3334 34.3583 30.8584 33.8333 31.5001 33.8333H33.8334C34.4751 33.8333 35.0001 34.3583 35.0001 34.9999V39.0833C35.0001 39.4099 35.2567 39.6666 35.5834 39.6666H36.1667C38.1034 39.6666 39.6667 38.1033 39.6667 36.1666V19.8333C39.6667 17.8966 38.1034 16.3333 36.1667 16.3333ZM31.2084 29.1666C31.2084 29.6449 30.8117 30.0416 30.3334 30.0416C29.8551 30.0416 29.4584 29.6449 29.4584 29.1666V23.3333C29.4584 22.8549 29.8551 22.4583 30.3334 22.4583C30.8117 22.4583 31.2084 22.8549 31.2084 23.3333V29.1666ZM35.8751 29.1666C35.8751 29.6449 35.4784 30.0416 35.0001 30.0416C34.5217 30.0416 34.1251 29.6449 34.1251 29.1666V23.3333C34.1251 22.8549 34.5217 22.4583 35.0001 22.4583C35.4784 22.4583 35.8751 22.8549 35.8751 23.3333V29.1666Z" fill="white"/>
<rect x="35" y="35" width="21" height="21" rx="10.5" fill="#7065F0"/>
<path d="M45.2084 50.7501C48.269 50.7501 50.7501 48.269 50.7501 45.2084C50.7501 42.1478 48.269 39.6667 45.2084 39.6667C42.1478 39.6667 39.6667 42.1478 39.6667 45.2084C39.6667 48.269 42.1478 50.7501 45.2084 50.7501Z" stroke="white" stroke-width="2" stroke-linecap="round" stroke-linejoin="round"/>
<path d="M51.3334 51.3334L50.1667 50.1667" stroke="white" stroke-width="2" stroke-linecap="round" stroke-linejoin="round"/>
</svg>
