<svg width="118" height="32" viewBox="0 0 118 32" fill="none" xmlns="http://www.w3.org/2000/svg">
<path d="M37.44 24H47.34V21.6H40.16V17.72H46.94V15.32H40.16V11.5H47.34V9.1H37.44V24ZM53.2545 24.24C54.0812 24.24 54.8012 24.1 55.4145 23.82C56.0279 23.54 56.5079 23.1533 56.8545 22.66C57.2012 22.1533 57.3745 21.5733 57.3745 20.92C57.3745 20.16 57.1345 19.5067 56.6545 18.96C56.1745 18.4133 55.4812 18.0133 54.5745 17.76L52.8345 17.24C52.4612 17.1333 52.1545 16.9933 51.9145 16.82C51.6745 16.6467 51.5545 16.4067 51.5545 16.1C51.5545 15.78 51.6812 15.52 51.9345 15.32C52.1879 15.12 52.5345 15.02 52.9745 15.02C53.5212 15.02 54.0145 15.1667 54.4545 15.46C54.9079 15.7533 55.2212 16.1467 55.3945 16.64L57.3945 15.7C57.0612 14.82 56.5012 14.1333 55.7145 13.64C54.9279 13.1333 54.0212 12.88 52.9945 12.88C52.2079 12.88 51.5079 13.02 50.8945 13.3C50.2945 13.58 49.8212 13.9733 49.4745 14.48C49.1412 14.9733 48.9745 15.5533 48.9745 16.22C48.9745 16.9667 49.2079 17.6133 49.6745 18.16C50.1545 18.7067 50.8545 19.1133 51.7745 19.38L53.5545 19.88C53.9012 19.9733 54.1945 20.1133 54.4345 20.3C54.6879 20.4733 54.8145 20.7133 54.8145 21.02C54.8145 21.38 54.6679 21.6667 54.3745 21.88C54.0945 22.08 53.7212 22.18 53.2545 22.18C52.6412 22.18 52.0879 22.0067 51.5945 21.66C51.1012 21.3133 50.7079 20.8333 50.4145 20.22L48.4545 21.16C48.7745 22.0933 49.3612 22.84 50.2145 23.4C51.0812 23.96 52.0945 24.24 53.2545 24.24ZM64.348 24.12C64.788 24.12 65.2213 24.0867 65.648 24.02V21.76C65.3946 21.8 65.1613 21.82 64.948 21.82C64.308 21.82 63.8413 21.6733 63.548 21.38C63.2546 21.0867 63.108 20.6667 63.108 20.12V15.46H65.608V13.12H63.108V10.64H60.488V11.48C60.488 12.0133 60.3413 12.42 60.048 12.7C59.7546 12.98 59.3413 13.12 58.808 13.12H58.608V15.46H60.488V20.26C60.488 21.4733 60.8213 22.42 61.488 23.1C62.168 23.78 63.1213 24.12 64.348 24.12ZM70.8911 24.24C72.3044 24.24 73.4378 23.7733 74.2911 22.84V24H76.7711V16.76C76.7711 16 76.5778 15.3267 76.1911 14.74C75.8044 14.1533 75.2711 13.7 74.5911 13.38C73.9244 13.0467 73.1444 12.88 72.2511 12.88C71.1578 12.88 70.1844 13.14 69.3311 13.66C68.4778 14.18 67.8911 14.8667 67.5711 15.72L69.7111 16.76C69.9111 16.2667 70.2244 15.8733 70.6511 15.58C71.0778 15.2733 71.5778 15.12 72.1511 15.12C72.7511 15.12 73.2311 15.28 73.5911 15.6C73.9644 15.9067 74.1511 16.2933 74.1511 16.76V17.12L70.9111 17.64C69.6311 17.8533 68.6844 18.26 68.0711 18.86C67.4578 19.46 67.1511 20.2133 67.1511 21.12C67.1511 22.08 67.4911 22.84 68.1711 23.4C68.8511 23.96 69.7578 24.24 70.8911 24.24ZM69.8711 21.02C69.8711 20.26 70.3844 19.78 71.4111 19.58L74.1511 19.12V19.56C74.1511 20.3067 73.8911 20.94 73.3711 21.46C72.8644 21.98 72.1978 22.24 71.3711 22.24C70.9311 22.24 70.5711 22.1333 70.2911 21.92C70.0111 21.6933 69.8711 21.3933 69.8711 21.02ZM83.9573 24.12C84.3973 24.12 84.8307 24.0867 85.2573 24.02V21.76C85.004 21.8 84.7707 21.82 84.5573 21.82C83.9173 21.82 83.4507 21.6733 83.1573 21.38C82.864 21.0867 82.7173 20.6667 82.7173 20.12V15.46H85.2173V13.12H82.7173V10.64H80.0973V11.48C80.0973 12.0133 79.9507 12.42 79.6573 12.7C79.364 12.98 78.9507 13.12 78.4173 13.12H78.2173V15.46H80.0973V20.26C80.0973 21.4733 80.4307 22.42 81.0973 23.1C81.7773 23.78 82.7307 24.12 83.9573 24.12ZM92.3214 24.24C93.4281 24.24 94.3947 23.9933 95.2214 23.5C96.0614 22.9933 96.6481 22.3533 96.9814 21.58L94.8614 20.54C94.6214 20.9533 94.2881 21.2933 93.8614 21.56C93.4481 21.8133 92.9414 21.94 92.3414 21.94C91.5547 21.94 90.8947 21.7 90.3614 21.22C89.8281 20.74 89.5214 20.1 89.4414 19.3H97.2814C97.3347 19.1533 97.3681 18.9867 97.3814 18.8C97.4081 18.6 97.4214 18.4 97.4214 18.2C97.4214 17.2267 97.2147 16.34 96.8014 15.54C96.3881 14.74 95.7881 14.1 95.0014 13.62C94.2147 13.1267 93.2547 12.88 92.1214 12.88C91.1081 12.88 90.1881 13.1267 89.3614 13.62C88.5481 14.1133 87.9014 14.7867 87.4214 15.64C86.9547 16.48 86.7214 17.4467 86.7214 18.54C86.7214 19.5933 86.9547 20.5533 87.4214 21.42C87.8881 22.2867 88.5414 22.9733 89.3814 23.48C90.2214 23.9867 91.2014 24.24 92.3214 24.24ZM92.1214 15.04C92.8147 15.04 93.3881 15.2533 93.8414 15.68C94.3081 16.0933 94.5681 16.6333 94.6214 17.3H89.5014C89.6481 16.58 89.9547 16.0267 90.4214 15.64C90.9014 15.24 91.4681 15.04 92.1214 15.04ZM99.4075 24H102.028V17.94C102.028 17.1133 102.254 16.4733 102.708 16.02C103.174 15.5533 103.774 15.32 104.508 15.32H105.448V13H104.808C104.141 13 103.554 13.12 103.048 13.36C102.541 13.6 102.148 14.0333 101.868 14.66V13.12H99.4075V24ZM108.208 28.42C109.235 28.42 110.088 28.1267 110.768 27.54C111.461 26.9667 112.015 26.1533 112.428 25.1L117.168 13.12H114.328L111.528 20.62L108.708 13.12H105.888L110.188 24L109.948 24.58C109.735 25.0333 109.488 25.4 109.208 25.68C108.941 25.96 108.508 26.1 107.908 26.1C107.695 26.1 107.468 26.08 107.228 26.04C106.988 26.0133 106.775 25.9733 106.588 25.92V28.12C106.815 28.2267 107.068 28.3 107.348 28.34C107.628 28.3933 107.915 28.42 108.208 28.42Z" fill="#100A55"/>
<g clip-path="url(#clip0_601_3380)">
<path d="M25.3333 11.6133L18.2226 6.08264C17.5986 5.59719 16.8306 5.33362 16.04 5.33362C15.2494 5.33362 14.4813 5.59719 13.8573 6.08264L6.74529 11.6133C6.31788 11.9457 5.97208 12.3713 5.7343 12.8578C5.49651 13.3442 5.37304 13.8785 5.37329 14.42V24.02C5.37329 24.7272 5.65424 25.4055 6.15434 25.9056C6.65444 26.4057 7.33271 26.6866 8.03996 26.6866H24.04C24.7472 26.6866 25.4255 26.4057 25.9256 25.9056C26.4257 25.4055 26.7066 24.7272 26.7066 24.02V14.42C26.7066 13.3226 26.2 12.2866 25.3333 11.6133Z" fill="#7065F0" stroke="#7065F0" stroke-width="3" stroke-linecap="round" stroke-linejoin="round"/>
<path d="M21.3334 20C18.3867 21.7773 13.6107 21.7773 10.6667 20" stroke="#F9FAFB" stroke-width="3" stroke-linecap="round" stroke-linejoin="round"/>
</g>
<defs>
<clipPath id="clip0_601_3380">
<rect width="32" height="32" fill="white"/>
</clipPath>
</defs>
</svg>
